<svg width="250" height="40" viewBox="0 0 250 40" fill="none" xmlns="http://www.w3.org/2000/svg">
<path d="M45.2259 0.302246H42.2764V39.9975H45.2259V0.302246Z" fill="#29F4D5"/>
<path d="M25.404 19.2998H11.0107V22.0219H25.404V19.2998Z" fill="#29F4D5"/>
<path d="M0 0.302734V40H2.94957V3.02479H33.5235V0.302734H0Z" fill="#29F4D5"/>
<path d="M133.903 0.150879H110.407V39.8461H113.357V2.87293H133.678C140.823 2.87293 145.7 6.16276 145.7 12.4555V12.5702C145.7 18.4673 140.708 22.3249 133.338 22.3249H124.038V25.047H133.167C141.446 25.047 148.649 20.7364 148.649 12.4022V12.2894C148.649 4.62955 142.637 0.150879 133.903 0.150879Z" fill="#29F4D5"/>
<path d="M93.2527 22.3237L79.4867 0H76.6519L52.1309 39.9801H55.1932L78.0129 3.23244L89.9075 22.3237H93.2527Z" fill="#29F4D5"/>
<path d="M97.7824 29.6699H94.4844L100.906 39.9801H104.139L97.7824 29.6699Z" fill="#29F4D5"/>
<path d="M249.701 13.731H167.609V29.8214H249.701V13.731Z" fill="#ED145B"/>
<path d="M182.897 21.1154C184.674 21.5479 185.599 22.1833 185.599 23.5895C185.599 25.1739 184.361 26.1106 182.596 26.1106C181.311 26.1106 180.097 25.6658 179.089 24.766L179.978 23.7083C180.784 24.4053 181.587 24.8009 182.633 24.8009C183.545 24.8009 184.123 24.3807 184.123 23.7329C184.123 23.1201 183.787 22.7962 182.225 22.4355C180.436 22.003 179.427 21.4741 179.427 19.9143C179.427 18.4487 180.628 17.4648 182.297 17.4648C183.522 17.4648 184.494 17.8379 185.347 18.5225L184.553 19.6396C183.797 19.0759 183.041 18.7746 182.272 18.7746C181.407 18.7746 180.903 19.2194 180.903 19.7831C180.903 20.4431 181.288 20.7301 182.897 21.1154Z" fill="black"/>
<path d="M192.786 26.1344C190.337 26.1344 188.511 24.2241 188.511 21.7992C188.511 19.397 190.3 17.4395 192.846 17.4395C194.396 17.4395 195.332 17.9806 196.136 18.7492L195.187 19.8417C194.514 19.2166 193.793 18.7964 192.834 18.7964C191.225 18.7964 190.058 20.1185 190.058 21.7746C190.058 23.4308 191.223 24.7775 192.834 24.7775C193.867 24.7775 194.527 24.3573 195.248 23.685L196.197 24.6463C195.32 25.5585 194.359 26.1344 192.786 26.1344Z" fill="black"/>
<path d="M200.833 22.447V25.991H199.355V17.583H200.833V21.0778H204.845V17.583H206.323V25.991H204.845V22.447H200.833Z" fill="black"/>
<path d="M214.186 26.1344C211.603 26.1344 209.802 24.1769 209.802 21.7992C209.802 19.4215 211.628 17.4395 214.209 17.4395C216.789 17.4395 218.593 19.397 218.593 21.7746C218.593 24.1523 216.769 26.1344 214.186 26.1344ZM214.186 18.7964C212.518 18.7964 211.351 20.1287 211.351 21.7746C211.351 23.4206 212.54 24.7775 214.211 24.7775C215.881 24.7775 217.046 23.4452 217.046 21.7992C217.046 20.1533 215.855 18.7964 214.186 18.7964Z" fill="black"/>
<path d="M226.008 26.1344C223.426 26.1344 221.624 24.1769 221.624 21.7992C221.624 19.4215 223.45 17.4395 226.031 17.4395C228.612 17.4395 230.415 19.397 230.415 21.7746C230.415 24.1523 228.591 26.1344 226.008 26.1344ZM226.008 18.7964C224.34 18.7964 223.174 20.1287 223.174 21.7746C223.174 23.4206 224.362 24.7775 226.033 24.7775C227.704 24.7775 228.868 23.4452 228.868 21.7992C228.868 20.1533 227.679 18.7964 226.008 18.7964Z" fill="black"/>
<path d="M233.901 17.583H235.379V24.6444H239.798V25.989H233.901V17.583Z" fill="black"/>
</svg>
