<svg width="24" height="20" viewBox="0 0 24 20" fill="none" xmlns="http://www.w3.org/2000/svg">
<g id="Alerta">
<path id="Rectangle" fill-rule="evenodd" clip-rule="evenodd" d="M20.3333 18.5937H3C1.89543 18.5937 1 17.6983 1 16.5937C1 16.2127 1.1088 15.8397 1.31359 15.5185L9.98027 1.92506C10.5741 0.993684 11.8105 0.720033 12.7419 1.31384C12.9877 1.47059 13.1963 1.6792 13.3531 1.92506L22.0198 15.5185C22.6136 16.4499 22.3399 17.6863 21.4085 18.2801C21.0873 18.4849 20.7143 18.5937 20.3333 18.5937Z" stroke="white" stroke-width="1.5"/>
<path id="!" fill-rule="evenodd" clip-rule="evenodd" d="M12.6609 5.79369H10.6729V6.28369L11.2049 12.4997H12.1429L12.6609 6.28369V5.79369ZM10.7429 15.5937H12.6049V13.6757H10.7429V15.5937Z" fill="white"/>
</g>
</svg>
